HIERARCHY
ROOT Hips
{
	OFFSET 0.000000 97.167313 0.000000
	CHANNELS 6 Xposition Yposition Zposition Xrotation Yrotation Zrotation
	JOINT Spine
	{
		OFFSET 0.000000 13.784798 0.064400
		CHANNELS 3 Xrotation Yrotation Zrotation
		JOINT Spine1
		{
			OFFSET 0.000000 12.037903 0.404700
			CHANNELS 3 Xrotation Yrotation Zrotation
			JOINT Spine2
			{
				OFFSET 0.000000 17.795601 0.420200
				CHANNELS 3 Xrotation Yrotation Zrotation
				JOINT Neck
				{
					OFFSET 0.000000 39.131302 11.954600
					CHANNELS 3 Xrotation Yrotation Zrotation
					JOINT Head
					{
						OFFSET 0.000000 14.456192 15.627699
						CHANNELS 3 Xrotation Yrotation Zrotation
						JOINT HeadTop_End
						{
							OFFSET 0.000000 15.703506 7.603401
							CHANNELS 3 Xrotation Yrotation Zrotation
							End Site
							{
								OFFSET 0.000000 17.447403 0.000000
							}
						}
					}
				}
				JOINT LeftShoulder
				{
					OFFSET 17.399500 24.608795 1.168800
					CHANNELS 3 Xrotation Yrotation Zrotation
					JOINT LeftArm
					{
						OFFSET 18.980635 5.765305 1.818600
						CHANNELS 3 Xrotation Yrotation Zrotation
						JOINT LeftForeArm
						{
							OFFSET 49.290169 0.000000 0.000000
							CHANNELS 3 Xrotation Yrotation Zrotation
							JOINT LeftHand
							{
								OFFSET 31.562012 0.000000 0.000000
								CHANNELS 3 Xrotation Yrotation Zrotation
								JOINT LeftHandThumb1
								{
									OFFSET 6.133995 -4.388519 7.076070
									CHANNELS 3 Xrotation Yrotation Zrotation
									JOINT LeftHandThumb2
									{
										OFFSET 6.037666 -3.485840 3.485847
										CHANNELS 3 Xrotation Yrotation Zrotation
										JOINT LeftHandThumb3
										{
											OFFSET 6.496506 -3.750763 3.750761
											CHANNELS 3 Xrotation Yrotation Zrotation
											JOINT LeftHandThumb4
											{
												OFFSET 5.616882 -3.242905 3.242910
												CHANNELS 3 Xrotation Yrotation Zrotation
												End Site
												{
													OFFSET -1.254608 7.132141 0.375429
												}
											}
										}
									}
								}
								JOINT LeftHandPinky1
								{
									OFFSET 18.920792 -0.453171 -11.426712
									CHANNELS 3 Xrotation Yrotation Zrotation
									JOINT LeftHandPinky2
									{
										OFFSET 4.919586 0.000000 0.000000
										CHANNELS 3 Xrotation Yrotation Zrotation
										JOINT LeftHandPinky3
										{
											OFFSET 5.233047 0.000000 0.000000
											CHANNELS 3 Xrotation Yrotation Zrotation
											JOINT LeftHandPinky4
											{
												OFFSET 5.571716 0.000000 0.000000
												CHANNELS 3 Xrotation Yrotation Zrotation
												End Site
												{
													OFFSET -3.459808 4.342407 -0.466164
												}
											}
										}
									}
								}
								JOINT LeftHandRing1
								{
									OFFSET 22.726120 -0.094986 -6.500475
									CHANNELS 3 Xrotation Yrotation Zrotation
									JOINT LeftHandRing2
									{
										OFFSET 6.408615 0.000000 0.000000
										CHANNELS 3 Xrotation Yrotation Zrotation
										JOINT LeftHandRing3
										{
											OFFSET 6.150223 0.000000 0.000000
											CHANNELS 3 Xrotation Yrotation Zrotation
											JOINT LeftHandRing4
											{
												OFFSET 6.145386 0.000000 0.000000
												CHANNELS 3 Xrotation Yrotation Zrotation
												End Site
												{
													OFFSET -3.671402 4.923981 -0.202372
												}
											}
										}
									}
								}
								JOINT LeftHandMiddle1
								{
									OFFSET 23.373947 0.000000 0.000001
									CHANNELS 3 Xrotation Yrotation Zrotation
									JOINT LeftHandMiddle2
									{
										OFFSET 6.996567 0.000000 0.000000
										CHANNELS 3 Xrotation Yrotation Zrotation
										JOINT LeftHandMiddle3
										{
											OFFSET 7.015945 0.000000 0.000000
											CHANNELS 3 Xrotation Yrotation Zrotation
											JOINT LeftHandMiddle4
											{
												OFFSET 7.721573 0.000000 0.000000
												CHANNELS 3 Xrotation Yrotation Zrotation
												End Site
												{
													OFFSET -4.651108 6.158463 0.251582
												}
											}
										}
									}
								}
								JOINT LeftHandIndex1
								{
									OFFSET 21.310577 -0.490082 6.209344
									CHANNELS 3 Xrotation Yrotation Zrotation
									JOINT LeftHandIndex2
									{
										OFFSET 7.536453 0.000000 0.000000
										CHANNELS 3 Xrotation Yrotation Zrotation
										JOINT LeftHandIndex3
										{
											OFFSET 7.512344 0.000000 0.000000
											CHANNELS 3 Xrotation Yrotation Zrotation
											JOINT LeftHandIndex4
											{
												OFFSET 10.212402 0.000000 0.000001
												CHANNELS 3 Xrotation Yrotation Zrotation
												End Site
												{
													OFFSET -5.180801 8.690506 1.388433
												}
											}
										}
									}
								}
							}
						}
					}
				}
				JOINT RightShoulder
				{
					OFFSET -17.399500 24.608795 1.168800
					CHANNELS 3 Xrotation Yrotation Zrotation
					JOINT RightArm
					{
						OFFSET -18.980635 5.765305 1.818600
						CHANNELS 3 Xrotation Yrotation Zrotation
						JOINT RightForeArm
						{
							OFFSET -49.290169 0.000000 0.000000
							CHANNELS 3 Xrotation Yrotation Zrotation
							JOINT RightHand
							{
								OFFSET -31.562012 0.000000 0.000000
								CHANNELS 3 Xrotation Yrotation Zrotation
								JOINT RightHandThumb1
								{
									OFFSET -6.133995 -4.388519 7.076070
									CHANNELS 3 Xrotation Yrotation Zrotation
									JOINT RightHandThumb2
									{
										OFFSET -6.037666 -3.485840 3.485847
										CHANNELS 3 Xrotation Yrotation Zrotation
										JOINT RightHandThumb3
										{
											OFFSET -6.496506 -3.750763 3.750761
											CHANNELS 3 Xrotation Yrotation Zrotation
											JOINT RightHandThumb4
											{
												OFFSET -5.616882 -3.242905 3.242910
												CHANNELS 3 Xrotation Yrotation Zrotation
												End Site
												{
													OFFSET 1.254608 7.132141 0.375429
												}
											}
										}
									}
								}
								JOINT RightHandIndex1
								{
									OFFSET -21.310577 -0.490082 6.209344
									CHANNELS 3 Xrotation Yrotation Zrotation
									JOINT RightHandIndex2
									{
										OFFSET -7.536453 0.000000 0.000000
										CHANNELS 3 Xrotation Yrotation Zrotation
										JOINT RightHandIndex3
										{
											OFFSET -7.512344 0.000000 0.000000
											CHANNELS 3 Xrotation Yrotation Zrotation
											JOINT RightHandIndex4
											{
												OFFSET -10.212402 0.000000 0.000001
												CHANNELS 3 Xrotation Yrotation Zrotation
												End Site
												{
													OFFSET 5.180801 8.690506 1.388433
												}
											}
										}
									}
								}
								JOINT RightHandMiddle1
								{
									OFFSET -23.373947 0.000000 0.000001
									CHANNELS 3 Xrotation Yrotation Zrotation
									JOINT RightHandMiddle2
									{
										OFFSET -6.996567 0.000000 0.000000
										CHANNELS 3 Xrotation Yrotation Zrotation
										JOINT RightHandMiddle3
										{
											OFFSET -7.015945 0.000000 0.000000
											CHANNELS 3 Xrotation Yrotation Zrotation
											JOINT RightHandMiddle4
											{
												OFFSET -7.721573 0.000000 0.000000
												CHANNELS 3 Xrotation Yrotation Zrotation
												End Site
												{
													OFFSET 4.651108 6.158463 0.251582
												}
											}
										}
									}
								}
								JOINT RightHandRing1
								{
									OFFSET -22.726120 -0.094986 -6.500475
									CHANNELS 3 Xrotation Yrotation Zrotation
									JOINT RightHandRing2
									{
										OFFSET -6.408615 0.000000 0.000000
										CHANNELS 3 Xrotation Yrotation Zrotation
										JOINT RightHandRing3
										{
											OFFSET -6.150223 0.000000 0.000000
											CHANNELS 3 Xrotation Yrotation Zrotation
											JOINT RightHandRing4
											{
												OFFSET -6.145386 0.000000 0.000000
												CHANNELS 3 Xrotation Yrotation Zrotation
												End Site
												{
													OFFSET 3.671402 4.923981 -0.202372
												}
											}
										}
									}
								}
								JOINT RightHandPinky1
								{
									OFFSET -18.920792 -0.453171 -11.426712
									CHANNELS 3 Xrotation Yrotation Zrotation
									JOINT RightHandPinky2
									{
										OFFSET -4.919586 0.000000 0.000000
										CHANNELS 3 Xrotation Yrotation Zrotation
										JOINT RightHandPinky3
										{
											OFFSET -5.233047 0.000000 0.000000
											CHANNELS 3 Xrotation Yrotation Zrotation
											JOINT RightHandPinky4
											{
												OFFSET -5.571716 0.000000 0.000000
												CHANNELS 3 Xrotation Yrotation Zrotation
												End Site
												{
													OFFSET 3.459808 4.342407 -0.466164
												}
											}
										}
									}
								}
							}
						}
					}
				}
			}
		}
	}
	JOINT LeftUpLeg
	{
		OFFSET 19.899099 -7.885101 -3.429500
		CHANNELS 3 Xrotation Yrotation Zrotation
		JOINT LeftLeg
		{
			OFFSET 1.745560 -36.997807 10.304700
			CHANNELS 3 Xrotation Yrotation Zrotation
			JOINT LeftFoot
			{
				OFFSET -1.745558 -29.803308 -13.615400
				CHANNELS 3 Xrotation Yrotation Zrotation
				JOINT LeftToeBase
				{
					OFFSET 1.181900 -18.539904 15.226099
					CHANNELS 3 Xrotation Yrotation Zrotation
					JOINT LeftToe_End
					{
						OFFSET -0.863701 1.402801 16.534700
						CHANNELS 3 Xrotation Yrotation Zrotation
						End Site
						{
							OFFSET 0.000000 16.616566 0.000000
						}
					}
				}
			}
		}
	}
	JOINT RightUpLeg
	{
		OFFSET -19.899099 -7.885101 -3.429500
		CHANNELS 3 Xrotation Yrotation Zrotation
		JOINT RightLeg
		{
			OFFSET -1.745560 -36.997807 10.304700
			CHANNELS 3 Xrotation Yrotation Zrotation
			JOINT RightFoot
			{
				OFFSET 1.745558 -29.803308 -13.615400
				CHANNELS 3 Xrotation Yrotation Zrotation
				JOINT RightToeBase
				{
					OFFSET -1.181900 -18.539904 15.226099
					CHANNELS 3 Xrotation Yrotation Zrotation
					JOINT RightToe_End
					{
						OFFSET 0.863701 1.402801 16.534700
						CHANNELS 3 Xrotation Yrotation Zrotation
						End Site
						{
							OFFSET 0.000000 16.616566 0.000000
						}
					}
				}
			}
		}
	}
}
MOTION
Frames: 5
Frame Time: 0.033333
-7.742326 39.196167 280.210693 82.462923 -2.932974 -2.686333 2.663967 -0.027676 -1.926227 -0.770965 0.038128 1.038328 -0.772823 0.079874 1.036301 -4.323870 0.175011 -9.335522 -9.834464 -21.142284 14.224251 -0.000000 0.000000 0.000000 0.574147 -7.650352 9.652902 -27.000306 -8.965719 -42.464020 0.000036 -59.081703 0.000020 -8.801038 4.352143 62.874384 1.094686 -9.775423 22.177192 3.663080 12.663408 3.408050 5.258430 13.571647 0.686381 0.000000 -0.000000 0.000000 -1.426476 6.460806 11.819897 0.000665 -3.603836 -4.246051 0.245211 1.824702 -15.306643 0.000003 -0.000007 -0.000007 -0.079691 0.505003 5.537796 0.116266 1.262526 -10.522542 0.159942 1.478363 -12.348333 -0.000002 0.000000 0.000002 0.415066 -3.549905 7.510520 0.000003 -0.000071 0.000003 0.006325 0.295686 -2.450854 0.000002 -0.000002 0.000001 1.271791 -6.358789 12.550663 0.000001 -0.000007 -0.000013 0.000248 0.059129 -0.489952 -0.000001 -0.000003 0.000001 0.612471 -10.814250 -18.637192 -49.549959 24.879481 69.293178 0.000031 52.613678 0.000005 9.044891 -2.567335 -54.697473 0.458412 7.056190 -29.060160 13.896831 -18.561912 20.609428 5.965734 -18.774450 -2.046806 -0.000001 -0.000003 0.000002 -0.523233 9.674113 3.661863 0.004819 -0.259359 2.128706 0.015616 -0.466740 3.832856 -0.000002 -0.000005 -0.000002 0.073824 7.760269 -0.086701 0.048826 -0.824240 6.779669 -0.538253 -1.451899 10.913413 0.000001 0.000001 -0.000006 0.650848 3.430343 -14.177667 0.998177 -3.594596 31.029481 -0.126132 -1.048570 8.388161 0.000000 0.000002 -0.000005 -0.719338 -6.462344 -6.466181 0.343143 -2.161337 18.040186 0.034762 0.695851 -5.719692 -0.000000 0.000000 0.000001 -15.185114 3.683906 5.903260 24.128821 -2.345185 3.042192 -26.663781 3.334073 -7.596240 -40.890796 -0.019626 -0.086233 0.000001 0.000000 0.000000 -27.096713 -3.229284 -6.745692 30.415826 3.911410 -3.858589 -3.724021 -1.823014 15.286201 -54.643976 -5.922434 6.782156 -0.000000 -0.000000 0.000000 
-8.462601 32.599770 287.706482 79.213187 4.422991 -3.255456 2.473720 -1.480354 -1.741108 -0.327816 -0.578826 0.572292 -0.320560 -0.558468 0.584769 5.653078 2.106367 -9.717258 4.158810 -19.298954 12.284093 0.000000 -0.000001 -0.000000 1.480205 -7.559250 5.880278 -17.973650 -14.012354 -40.587211 -0.000019 -60.848434 -0.000040 -14.816750 2.454059 72.778220 1.404464 -10.156654 23.488749 3.208112 12.750074 4.973787 5.407298 13.777990 0.777970 0.000000 -0.000000 0.000001 -1.331003 5.754738 12.126412 -0.007371 -3.726527 -3.227782 0.285438 1.965619 -16.522501 -0.000000 -0.000004 -0.000005 0.005136 -0.413395 6.121972 0.132027 1.344584 -11.215289 0.235352 1.788274 -14.993701 -0.000000 0.000002 0.000010 0.523756 -4.195330 7.858566 0.000614 0.092003 -0.762533 0.000622 0.092880 -0.769662 0.000001 -0.000001 0.000004 1.371163 -6.142839 14.364234 0.001575 0.147349 -1.221103 0.001944 -0.164282 1.361422 -0.000000 0.000005 -0.000001 -1.890738 -10.226610 -26.914868 -38.314182 15.457987 80.324964 0.000032 49.261360 -0.000025 13.528761 5.611865 -64.839416 0.502327 6.834513 -31.146219 11.421308 -18.974076 14.351853 6.102498 -19.108568 -2.038998 0.000000 -0.000001 0.000002 -0.280111 8.150663 2.451825 0.000078 -0.032830 0.269316 0.018534 -0.508466 4.176114 -0.000001 -0.000003 -0.000002 0.282043 7.694455 -1.685312 0.046820 -0.807214 6.638988 -0.468187 -1.612691 12.200008 0.000001 0.000001 -0.000002 0.680218 3.522767 -14.347881 0.990057 -3.581089 30.899725 -0.067580 -1.064689 8.586390 0.000002 0.000001 -0.000003 -0.790653 -6.155465 -7.305010 0.283277 -1.968212 16.378920 0.034159 0.689711 -5.668894 -0.000000 -0.000007 0.000007 -13.627249 3.834947 8.174902 28.554297 1.568497 5.277671 -21.917698 3.217521 -8.513755 -48.103171 12.788770 -16.401161 -0.000002 -0.000000 0.000000 -21.565993 -4.177444 -8.146303 35.698322 0.739846 -1.778928 -1.073646 -1.099748 11.089259 -84.465951 -7.979430 6.255200 -0.000000 0.000000 -0.000000 
-9.392558 26.192200 294.244843 75.815926 11.480635 -4.569573 2.273433 -2.534647 -1.443476 0.077583 -1.054524 -0.020511 0.078772 -1.057740 -0.004874 12.550549 3.293856 -7.063432 16.490554 -19.343092 7.263265 0.000000 -0.000001 -0.000001 1.657899 -7.708257 2.207925 -8.868058 -13.524239 -38.984114 0.000065 -66.510620 0.000063 -14.854034 1.312899 71.513105 1.582083 -10.106719 24.857948 2.953041 12.921577 5.849900 5.320801 13.982166 0.944400 0.000001 -0.000001 -0.000002 -1.325179 5.594070 12.330064 -0.012450 -3.830299 -2.367120 0.321772 2.084206 -17.551250 -0.000001 0.000000 -0.000002 0.082090 -1.092215 6.923701 0.118247 1.273140 -10.611977 0.417304 2.364881 -20.011797 -0.000001 -0.000001 -0.000000 0.529310 -4.038985 8.385147 0.000090 0.035425 -0.293687 0.011770 0.403211 -3.343137 0.000001 -0.000001 0.000004 1.467898 -5.998536 16.097274 0.000235 0.056824 -0.470846 0.003178 0.209470 -1.736108 -0.000000 0.000001 0.000001 -3.371604 -10.238438 -24.285122 -21.642878 14.666677 80.465823 0.000033 55.279002 -0.000044 14.728299 7.136535 -72.810909 0.640757 6.896536 -32.811443 9.111852 -19.061924 8.602422 6.167441 -19.266881 -2.035349 -0.000001 -0.000001 0.000001 -0.214469 8.404651 1.975832 0.000002 -0.000001 0.000008 0.021940 -0.553121 4.543604 -0.000001 -0.000010 -0.000002 0.619578 10.067221 -3.012211 0.045023 -0.791602 6.510209 -0.458070 -1.821343 13.739346 0.000001 0.000001 -0.000001 1.006390 4.784718 -14.282887 0.983584 -3.570285 30.795984 -0.013562 -1.169140 9.486588 -0.000004 -0.000002 -0.000003 -0.627414 -4.556700 -7.508132 0.241202 -1.819016 15.105605 0.033396 0.682030 -5.605640 -0.000000 -0.000001 0.000000 -16.082070 6.453580 13.027801 36.096372 3.742455 6.936344 -15.696770 2.191991 -8.436774 -47.554601 22.849406 -35.814671 -0.000002 0.000003 0.000000 -10.997297 -5.074934 -6.330767 36.132165 1.464167 1.401111 0.717100 -0.875882 8.448358 45.683997 11.193905 7.065908 0.000005 -0.000001 -0.000001 
-10.108586 20.254501 299.866638 74.039032 16.734191 -6.021655 1.464867 -2.657859 -1.029867 0.001524 -1.141010 -0.481018 -0.006997 -1.155054 -0.468880 14.734683 3.218385 -4.393620 24.605809 -22.835054 4.994120 -0.000000 0.000001 -0.000001 1.215966 -7.230221 -1.163241 0.419407 -11.369596 -36.596150 0.000043 -71.980666 0.000035 -15.075414 -0.110142 66.336450 1.194064 -8.595804 26.362582 2.736799 13.169579 6.581325 4.972936 14.180909 1.188854 -0.000000 0.000001 -0.000002 -1.468946 6.212765 12.475494 -0.017515 -4.007616 -0.897537 0.326494 2.099017 -17.680305 0.000000 -0.000004 -0.000005 0.098849 -1.179957 8.300013 0.078742 1.040486 -8.655651 0.615276 2.849804 -24.361480 -0.000002 0.000001 0.000005 0.419803 -3.139753 9.142986 -0.000000 -0.000063 -0.000010 0.079858 1.047796 -8.716972 0.000000 -0.000000 0.000001 1.591656 -5.999362 17.734344 0.000003 -0.000007 0.000005 0.034182 0.686639 -5.699431 -0.000001 -0.000003 -0.000003 -4.018304 -13.762082 -20.139696 -5.594710 14.375376 79.679464 0.000044 65.413896 -0.000014 17.500715 5.017621 -77.503065 0.837878 7.108553 -34.116242 7.231529 -18.766460 3.987031 6.744637 -20.664806 -2.000802 0.000001 -0.000002 0.000002 -0.160846 9.636283 1.555479 -0.000001 -0.006856 0.056326 0.028085 -0.625638 5.140818 -0.000002 -0.000001 0.000001 1.198579 12.415899 -4.980836 0.044265 -0.784965 6.455059 -0.345468 -1.882320 14.393567 -0.000001 -0.000001 -0.000004 1.494043 6.513748 -14.637976 0.973941 -3.554080 30.640799 0.121967 -1.214612 10.042051 -0.000001 -0.000001 -0.000007 -0.339533 -2.104367 -7.775909 0.211780 -1.706291 14.148806 0.033187 0.679977 -5.588768 -0.000001 -0.000000 0.000002 -19.328334 10.108401 19.496374 41.698179 3.168776 5.590421 -10.825624 1.198841 -8.670946 -50.391148 27.063911 -39.018545 0.000000 0.000003 0.000000 0.540974 -5.432091 -1.629729 30.964902 4.851141 2.102617 0.105576 -0.862092 7.402157 31.371892 19.440206 25.021539 0.000001 0.000003 0.000003 
-10.424912 15.561325 304.464539 75.823351 19.447838 -6.737365 0.136680 -2.362451 -0.805892 -0.436884 -0.984533 -0.724704 -0.446005 -0.990678 -0.716137 12.613304 2.543450 -4.459942 29.683845 -28.146595 5.795827 -0.000000 -0.000000 0.000001 0.537352 -1.736148 -4.002189 6.336253 -12.808916 -34.593713 -0.000001 -74.379893 0.000019 -15.786212 -2.412573 60.651670 -0.085594 -5.143288 28.076213 2.620223 13.547189 6.971408 4.429461 14.355745 1.495417 0.000000 0.000000 0.000000 -1.449189 6.177509 12.382882 -0.018111 -4.056674 -0.491020 0.257133 1.867681 -15.676524 -0.000001 0.000000 -0.000002 0.226945 -1.880740 10.055511 0.037262 0.716850 -5.951057 0.539528 2.676438 -22.790331 -0.000001 0.000004 0.000004 0.380465 -2.743411 10.051633 -0.000001 -0.000067 -0.000025 0.066095 0.953736 -7.928980 -0.000000 -0.000003 0.000008 1.910943 -6.584804 19.228229 0.000001 -0.000003 -0.000002 0.000111 -0.039321 0.325822 -0.000002 0.000001 0.000003 -6.049172 -20.362633 -21.478563 5.736928 16.228337 83.111033 0.000102 71.904762 -0.000070 20.954633 7.015331 -80.503451 1.711728 8.542047 -35.024633 5.993894 -18.099088 1.002081 8.064013 -23.798452 -1.903952 -0.000000 -0.000001 0.000002 0.437398 13.527553 -1.015586 0.007840 -0.330800 2.715497 0.035918 -0.707281 5.813988 -0.000001 -0.000003 -0.000001 2.075634 14.579261 -7.620016 0.044260 -0.784913 6.454799 1.024794 -1.509624 14.242244 -0.000001 -0.000001 -0.000004 2.874666 9.383252 -18.827717 0.975142 -3.556116 30.660173 1.059791 -1.057331 10.143283 -0.000000 0.000000 -0.000005 0.302933 2.112116 -11.485630 0.153328 -1.455000 12.029966 0.033579 0.683902 -5.621148 0.000000 -0.000001 0.000000 -20.218017 12.568303 24.203194 42.334424 2.909861 1.226490 -9.295834 1.374354 -11.880053 -44.751895 26.201161 -37.677379 -0.000001 0.000001 -0.000002 8.521254 -5.463804 2.018989 23.979578 7.428025 -0.478873 -1.993081 -1.060940 8.920412 17.919152 18.380181 37.174172 -0.000003 -0.000001 -0.000000 
